<svg width="16" height="18" viewBox="0 0 16 18" fill="none" xmlns="http://www.w3.org/2000/svg">
<g clip-path="url(#clip0_703_43)">
<path d="M0 2.8125C0 1.88086 0.755859 1.125 1.6875 1.125H5.0625C5.99414 1.125 6.75 1.88086 6.75 2.8125V6.1875C6.75 7.11914 5.99414 7.875 5.0625 7.875H1.6875C0.755859 7.875 0 7.11914 0 6.1875V2.8125ZM2.25 3.375V5.625H4.5V3.375H2.25ZM0 11.8125C0 10.8809 0.755859 10.125 1.6875 10.125H5.0625C5.99414 10.125 6.75 10.8809 6.75 11.8125V15.1875C6.75 16.1191 5.99414 16.875 5.0625 16.875H1.6875C0.755859 16.875 0 16.1191 0 15.1875V11.8125ZM2.25 12.375V14.625H4.5V12.375H2.25ZM10.6875 1.125H14.0625C14.9941 1.125 15.75 1.88086 15.75 2.8125V6.1875C15.75 7.11914 14.9941 7.875 14.0625 7.875H10.6875C9.75586 7.875 9 7.11914 9 6.1875V2.8125C9 1.88086 9.75586 1.125 10.6875 1.125ZM13.5 3.375H11.25V5.625H13.5V3.375ZM9 10.6875C9 10.3781 9.25312 10.125 9.5625 10.125H11.8125C12.1219 10.125 12.375 10.3781 12.375 10.6875C12.375 10.9969 12.6281 11.25 12.9375 11.25H14.0625C14.3719 11.25 14.625 10.9969 14.625 10.6875C14.625 10.3781 14.8781 10.125 15.1875 10.125C15.4969 10.125 15.75 10.3781 15.75 10.6875V14.0625C15.75 14.3719 15.4969 14.625 15.1875 14.625H12.9375C12.6281 14.625 12.375 14.3719 12.375 14.0625C12.375 13.7531 12.1219 13.5 11.8125 13.5C11.5031 13.5 11.25 13.7531 11.25 14.0625V16.3125C11.25 16.6219 10.9969 16.875 10.6875 16.875H9.5625C9.25312 16.875 9 16.6219 9 16.3125V10.6875ZM12.9375 16.875C12.7883 16.875 12.6452 16.8157 12.5398 16.7102C12.4343 16.6048 12.375 16.4617 12.375 16.3125C12.375 16.1633 12.4343 16.0202 12.5398 15.9148C12.6452 15.8093 12.7883 15.75 12.9375 15.75C13.0867 15.75 13.2298 15.8093 13.3352 15.9148C13.4407 16.0202 13.5 16.1633 13.5 16.3125C13.5 16.4617 13.4407 16.6048 13.3352 16.7102C13.2298 16.8157 13.0867 16.875 12.9375 16.875ZM15.1875 16.875C15.0383 16.875 14.8952 16.8157 14.7898 16.7102C14.6843 16.6048 14.625 16.4617 14.625 16.3125C14.625 16.1633 14.6843 16.0202 14.7898 15.9148C14.8952 15.8093 15.0383 15.75 15.1875 15.75C15.3367 15.75 15.4798 15.8093 15.5852 15.9148C15.6907 16.0202 15.75 16.1633 15.75 16.3125C15.75 16.4617 15.6907 16.6048 15.5852 16.7102C15.4798 16.8157 15.3367 16.875 15.1875 16.875Z" fill="currentColor"/>
</g>
<defs>
<clipPath id="clip0_703_43">
<path d="M0 0H15.75V18H0V0Z" fill="white"/>
</clipPath>
</defs>
</svg>
